# xmcd
#
# Track frame offsets: 
#        150
#        30762
#        59836
#        70689
#        83556
#        97422
#        111955
#        123001
#        135274
#        146430
#        156643
#        166698
#        177584
#        189721
#        203584
#        217738
#        229166
#        243348
#        253698
#        266642
#        285431
#        303118
#
# Disc length: 4417 seconds
#
# Revision: 0
# Processed by: cddbd v1.5.2PL0 Copyright (c) Steve Scherf et al.
# Submitted via: ExactAudioCopy v0.95a5
#
DISCID=30113f16
DTITLE=Ray Charles - Ray Charles_The Very Best Of [25 Original Hits]
DYEAR=2002
DGENRE=Vocal
TTITLE0=Georgia On My Mind (live)
TTITLE1=What'd I Say
TTITLE2=Hey Now
TTITLE3=Heartbreaker
TTITLE4=I'm Going Down The River
TTITLE5=But On The Other Hand Baby
TTITLE6=I Wonder Who's Kissing Her Now
TTITLE7=Honey Honey
TTITLE8=A Sentimental Blues
TTITLE9=I'm Moving On (live)
TTITLE10=Busted
TTITLE11=Sittin' On Top Of The World
TTITLE12=See See Rider
TTITLE13=This Love Of Mine
TTITLE14=Kiss Me Baby
TTITLE15=She's On The Ball
TTITLE16=Baby Let Me Hold Your Hand
TTITLE17=Ain't That Fine
TTITLE18=Baby Won't You Please Come Home
TTITLE19=Baby It's Cold Outside (with Betty Carter)
TTITLE20=Seven Spanish Angels (with Willie Nelson)
TTITLE21=I Got A Woman (live)
EXTD=
EXTT0=
EXTT1=
EXTT2=
EXTT3=
EXTT4=
EXTT5=
EXTT6=
EXTT7=
EXTT8=
EXTT9=
EXTT10=
EXTT11=
EXTT12=
EXTT13=
EXTT14=
EXTT15=
EXTT16=
EXTT17=
EXTT18=
EXTT19=
EXTT20=
EXTT21=
PLAYORDER=
